# xmcd
#
# Track frame offsets:
#	150
#	11567
#	28742
#	42317
#	55442
#	70142
#	87167
#	104192
#	118967
#	132729
#	144879
#
# Disc length: 2083 seconds
# Revision: 0
# Processed by: cddbd v1.5.2PL0 Copyright (c) Steve Scherf et al.
# Submitted via: dBpowerAMP V12.0
#
DISCID=a508210b
DTITLE=The Gina Furtado Project - I Hope You Have A Good Life
DYEAR=2019
DGENRE=Bluegrass
TTITLE0=The First Pebble
TTITLE1=Airplane Ride
TTITLE2=A Man Like That
TTITLE3=Shame
TTITLE4=Try
TTITLE5=Princess and the Pea
TTITLE6=Story of An Artist
TTITLE7=I Knew What to Do
TTITLE8=Take Your Time (I'll Be Fine)
TTITLE9=Dancin' to Your Tune
TTITLE10=Can You Picture That?
EXTD=
EXTT0=
EXTT1=
EXTT2=
EXTT3=
EXTT4=
EXTT5=
EXTT6=
EXTT7=
EXTT8=
EXTT9=
EXTT10=
PLAYORDER=
